<mxfile host="app.diagrams.net" modified="2023-11-02T11:25:17.556Z" agent="Mozilla/5.0 (Windows NT 10.0; Win64; x64) AppleWebKit/537.36 (KHTML, like Gecko) Chrome/118.0.0.0 Safari/537.36 Edg/118.0.2088.76" version="22.0.8" etag="Qva9yvI_waZ5x3oat1j6" type="github">
  <diagram name="第 1 页" id="_2sgJ_pG5cyG1wsAuUVU">
    <mxGraphModel>
      <root>
        <mxCell id="0" />
        <mxCell id="1" parent="0" />
      </root>
    </mxGraphModel>
  </diagram>
</mxfile>
